# xmcd
#
# Track frame offsets:
#	150
#	19136
#	41670
#	63150
#	77334
#	102385
#	119569
#	136563
#	154213
#	174242
#	194356
#	216398
#	236367
#	252210
#	270732
#	286278
#	305126
#
# Disc length: 4284 seconds
#
# Revision: 1
# Processed by: cddbd v1.5.2PL0 Copyright (c) Steve Scherf et al.
# Submitted via: audiograbber 1.83.01
#
DISCID=eb10ba11
DTITLE=Country Karaoke Classics  - Country Wedding #42
DYEAR=1900
DGENRE=karaoke
TTITLE0=Lonestar - Amazed
TTITLE1=Shania Twain - From This Moment On
TTITLE2=Kenny Rogers - Through The Years
TTITLE3=Martina McBride - In My Daughter's Eyes
TTITLE4=Bob Carlisle - Butterfly Kisses
TTITLE5=Kenny Chesney - You Had Me From Hello
TTITLE6=LeeAnn Rimes - You Light Up My Life
TTITLE7=Jo Dee Messina - Because You Love Me
TTITLE8=John Michael Montgomery - I Swear
TTITLE9=Faith Hill - Breathe
TTITLE10=Sara Evans - I Could Not Ask For More
TTITLE11=Sammy Kershaw - Love Of My Life
TTITLE12=Anne Murray - Could I Have This Dance
TTITLE13=LeeAnn Rimes - Unchained Melody
TTITLE14=Martina McBride - Valentine
TTITLE15=Tracy Byrd - Keeper Of The Stars
TTITLE16=George Strait - I Cross My Heart
EXTD=karaoke
EXTT0=
EXTT1=
EXTT2=
EXTT3=
EXTT4=
EXTT5=
EXTT6=
EXTT7=
EXTT8=
EXTT9=
EXTT10=
EXTT11=
EXTT12=
EXTT13=
EXTT14=
EXTT15=
EXTT16=
PLAYORDER=
